<svg fill="#ffff" version="1.1" id="Layer_1" xmlns="http://www.w3.org/2000/svg" xmlns:xlink="http://www.w3.org/1999/xlink" viewBox="0 0 512 512" enable-background="new 0 0 512 512" xml:space="preserve" stroke="#ffff" transform="matrix(-1, 0, 0, 1, 0, 0)"><g id="SVGRepo_bgCarrier" stroke-width="0"></g><g id="SVGRepo_tracerCarrier" stroke-linecap="round" stroke-linejoin="round"></g><g id="SVGRepo_iconCarrier"> <g> <path d="M256,512c141.391,0,256-114.609,256-256S397.391,0,256,0S0,114.609,0,256S114.609,512,256,512z M256,40 c119.297,0,216,96.703,216,216s-96.703,216-216,216S40,375.297,40,256S136.703,40,256,40z"></path> <polygon points="352,176 256,256 352,336 "></polygon> <polygon points="256,256 256,176 160,256 256,336 "></polygon> <polygon points="160,240 160,176 128,176 128,336 160,336 "></polygon> </g> </g></svg>